<svg width="124" height="32" viewBox="0 0 124 32" fill="none" xmlns="http://www.w3.org/2000/svg">
<path fill-rule="evenodd" clip-rule="evenodd" d="M16 0C16 8.83656 8.83656 16 0 16C8.83656 16 16 23.1634 16 32C16 23.1634 23.1634 16 32 16C23.1634 16 16 8.83656 16 0Z" fill="#6366F1"/>
<path d="M40.7955 11.1634V8.95455H52.4006V11.1634H47.9048V23.5H45.2912V11.1634H40.7955ZM53.3913 23.5V12.5909H55.8842V14.4091H55.9979C56.1967 13.7794 56.5376 13.294 57.0206 12.9531C57.5083 12.6075 58.0646 12.4347 58.6896 12.4347C58.8317 12.4347 58.9903 12.4418 59.1655 12.456C59.3454 12.4654 59.4946 12.482 59.6129 12.5057V14.8707C59.504 14.8329 59.3312 14.7997 59.0945 14.7713C58.8625 14.7382 58.6375 14.7216 58.4197 14.7216C57.951 14.7216 57.5296 14.8234 57.1555 15.027C56.7862 15.2259 56.495 15.5028 56.282 15.858C56.0689 16.2131 55.9624 16.6226 55.9624 17.0866V23.5H53.3913ZM64.2649 23.7202C63.5736 23.7202 62.951 23.5971 62.397 23.3509C61.8478 23.0999 61.4122 22.7306 61.0902 22.2429C60.773 21.7552 60.6143 21.1539 60.6143 20.4389C60.6143 19.8234 60.728 19.3144 60.9553 18.9119C61.1825 18.5095 61.4927 18.1875 61.8857 17.946C62.2786 17.7045 62.7214 17.5223 63.2138 17.3991C63.7109 17.2713 64.2247 17.179 64.755 17.1222C65.3942 17.0559 65.9126 16.9967 66.3104 16.9446C66.7081 16.8878 66.9969 16.8026 67.1768 16.6889C67.3615 16.5705 67.4538 16.3883 67.4538 16.142V16.0994C67.4538 15.5644 67.2952 15.1501 66.978 14.8565C66.6607 14.563 66.2038 14.4162 65.6072 14.4162C64.9775 14.4162 64.478 14.5535 64.1087 14.8281C63.7441 15.1027 63.4979 15.4271 63.37 15.8011L60.9695 15.4602C61.1589 14.7973 61.4714 14.2434 61.907 13.7983C62.3426 13.3485 62.8752 13.0123 63.505 12.7898C64.1347 12.5625 64.8307 12.4489 65.593 12.4489C66.1186 12.4489 66.6418 12.5104 67.1626 12.6335C67.6835 12.7566 68.1593 12.9602 68.5902 13.2443C69.0211 13.5237 69.3667 13.9048 69.6271 14.3878C69.8923 14.8707 70.0249 15.4744 70.0249 16.1989V23.5H67.5533V22.0014H67.468C67.3118 22.3045 67.0916 22.5885 66.8075 22.8537C66.5282 23.1141 66.1754 23.3248 65.7493 23.4858C65.3279 23.642 64.8331 23.7202 64.2649 23.7202ZM64.9325 21.831C65.4486 21.831 65.8961 21.7292 66.2749 21.5256C66.6536 21.3172 66.9448 21.0426 67.1484 20.7017C67.3568 20.3608 67.4609 19.9891 67.4609 19.5866V18.3011C67.3804 18.3674 67.2431 18.429 67.049 18.4858C66.8596 18.5426 66.6465 18.5923 66.4098 18.6349C66.1731 18.6776 65.9387 18.7154 65.7067 18.7486C65.4747 18.7817 65.2734 18.8101 65.103 18.8338C64.7195 18.8859 64.3762 18.9711 64.0732 19.0895C63.7701 19.2079 63.531 19.3736 63.3558 19.5866C63.1806 19.795 63.093 20.0649 63.093 20.3963C63.093 20.8698 63.2659 21.2273 63.6115 21.4688C63.9571 21.7102 64.3975 21.831 64.9325 21.831ZM76.6584 23.6918C75.8014 23.6918 75.0343 23.4716 74.3572 23.0312C73.6802 22.5909 73.1451 21.9517 72.7521 21.1136C72.3591 20.2756 72.1626 19.2576 72.1626 18.0597C72.1626 16.8475 72.3615 15.8248 72.7592 14.9915C73.1617 14.1534 73.7038 13.5213 74.3857 13.0952C75.0675 12.6643 75.8274 12.4489 76.6655 12.4489C77.3047 12.4489 77.8303 12.5578 78.2422 12.7756C78.6541 12.9886 78.9808 13.2467 79.2223 13.5497C79.4638 13.848 79.6508 14.1297 79.7834 14.3949H79.8899V8.95455H82.468V23.5H79.9396V21.7812H79.7834C79.6508 22.0464 79.459 22.3281 79.2081 22.6264C78.9571 22.92 78.6257 23.1709 78.2138 23.3793C77.8018 23.5876 77.2834 23.6918 76.6584 23.6918ZM77.3757 21.5824C77.9202 21.5824 78.3842 21.4356 78.7678 21.142C79.1513 20.8437 79.4425 20.4295 79.6413 19.8991C79.8402 19.3688 79.9396 18.7509 79.9396 18.0455C79.9396 17.34 79.8402 16.7268 79.6413 16.206C79.4472 15.6851 79.1584 15.2803 78.7749 14.9915C78.3961 14.7027 77.9297 14.5582 77.3757 14.5582C76.8028 14.5582 76.3246 14.7074 75.9411 15.0057C75.5575 15.304 75.2687 15.7159 75.0746 16.2415C74.8804 16.767 74.7834 17.3684 74.7834 18.0455C74.7834 18.7273 74.8804 19.3357 75.0746 19.8707C75.2734 20.401 75.5646 20.8201 75.9482 21.1278C76.3364 21.4309 76.8123 21.5824 77.3757 21.5824ZM90.0373 23.7131C88.9435 23.7131 87.9989 23.4858 87.2035 23.0312C86.4128 22.572 85.8043 21.9233 85.3782 21.0852C84.9521 20.2424 84.739 19.2505 84.739 18.1094C84.739 16.9872 84.9521 16.0024 85.3782 15.1548C85.8091 14.3026 86.4104 13.6397 87.1822 13.1662C87.954 12.688 88.8607 12.4489 89.9023 12.4489C90.5747 12.4489 91.2092 12.5578 91.8058 12.7756C92.4071 12.9886 92.9374 13.3201 93.3967 13.7699C93.8607 14.2197 94.2253 14.7926 94.4904 15.4886C94.7556 16.1799 94.8881 17.0038 94.8881 17.9602V18.7486H85.9464V17.0156H92.4237C92.4189 16.5232 92.3124 16.0852 92.104 15.7017C91.8957 15.3134 91.6045 15.008 91.2305 14.7855C90.8612 14.563 90.4303 14.4517 89.9379 14.4517C89.4123 14.4517 88.9506 14.5795 88.5529 14.8352C88.1552 15.0862 87.8451 15.4176 87.6225 15.8295C87.4047 16.2367 87.2934 16.6842 87.2887 17.1719V18.6847C87.2887 19.3191 87.4047 19.8636 87.6367 20.3182C87.8687 20.768 88.1931 21.1136 88.6097 21.3551C89.0264 21.5919 89.5141 21.7102 90.0728 21.7102C90.4469 21.7102 90.7854 21.6581 91.0884 21.554C91.3915 21.4451 91.6542 21.2865 91.8768 21.0781C92.0993 20.8698 92.2674 20.6117 92.381 20.304L94.7816 20.5739C94.6301 21.2083 94.3413 21.7623 93.9151 22.2358C93.4937 22.7045 92.954 23.0691 92.2958 23.3295C91.6377 23.5852 90.8848 23.7131 90.0373 23.7131Z" fill="#374151"/>
<path d="M106.921 13.5994C106.803 13.2159 106.639 12.8726 106.431 12.5696C106.228 12.2618 105.981 11.9991 105.692 11.7812C105.408 11.5634 105.082 11.4001 104.712 11.2912C104.343 11.1776 103.941 11.1207 103.505 11.1207C102.724 11.1207 102.028 11.3172 101.417 11.7102C100.806 12.1032 100.326 12.6809 99.9751 13.4432C99.6295 14.2008 99.4567 15.1241 99.4567 16.2131C99.4567 17.3116 99.6295 18.242 99.9751 19.0043C100.321 19.7666 100.801 20.3466 101.417 20.7443C102.032 21.1373 102.747 21.3338 103.562 21.3338C104.3 21.3338 104.94 21.1918 105.479 20.9077C106.024 20.6236 106.443 20.2211 106.737 19.7003C107.03 19.1747 107.177 18.5592 107.177 17.8537L107.773 17.946H103.825V15.8864H109.727V17.6335C109.727 18.8788 109.461 19.956 108.931 20.8651C108.401 21.7741 107.672 22.4749 106.744 22.9673C105.816 23.455 104.75 23.6989 103.548 23.6989C102.208 23.6989 101.031 23.3982 100.018 22.7969C99.0092 22.1908 98.2209 21.3314 97.6527 20.2188C97.0893 19.1013 96.8075 17.7756 96.8075 16.2415C96.8075 15.0672 96.9732 14.0185 97.3047 13.0952C97.6409 12.1719 98.1096 11.3883 98.7109 10.7443C99.3123 10.0956 100.018 9.60322 100.827 9.26705C101.637 8.92614 102.518 8.75568 103.469 8.75568C104.274 8.75568 105.025 8.87405 105.721 9.1108C106.417 9.3428 107.035 9.67424 107.575 10.1051C108.119 10.536 108.567 11.0473 108.917 11.6392C109.267 12.2311 109.497 12.8845 109.606 13.5994H106.921ZM116.919 23.7131C115.854 23.7131 114.931 23.4787 114.15 23.0099C113.368 22.5412 112.762 21.8854 112.331 21.0426C111.905 20.1998 111.692 19.215 111.692 18.0881C111.692 16.9612 111.905 15.974 112.331 15.1264C112.762 14.2789 113.368 13.6207 114.15 13.152C114.931 12.6832 115.854 12.4489 116.919 12.4489C117.985 12.4489 118.908 12.6832 119.689 13.152C120.471 13.6207 121.074 14.2789 121.5 15.1264C121.931 15.974 122.147 16.9612 122.147 18.0881C122.147 19.215 121.931 20.1998 121.5 21.0426C121.074 21.8854 120.471 22.5412 119.689 23.0099C118.908 23.4787 117.985 23.7131 116.919 23.7131ZM116.934 21.6534C117.511 21.6534 117.994 21.4948 118.382 21.1776C118.771 20.8556 119.06 20.4247 119.249 19.8849C119.443 19.3452 119.54 18.7438 119.54 18.081C119.54 17.4134 119.443 16.8097 119.249 16.2699C119.06 15.7254 118.771 15.2921 118.382 14.9702C117.994 14.6482 117.511 14.4872 116.934 14.4872C116.342 14.4872 115.849 14.6482 115.456 14.9702C115.068 15.2921 114.777 15.7254 114.583 16.2699C114.393 16.8097 114.299 17.4134 114.299 18.081C114.299 18.7438 114.393 19.3452 114.583 19.8849C114.777 20.4247 115.068 20.8556 115.456 21.1776C115.849 21.4948 116.342 21.6534 116.934 21.6534Z" fill="#6366F1"/>
</svg>
